<svg width="16" height="16" viewBox="0 0 32 32" fill="none" xmlns="http://www.w3.org/2000/svg">
<path fill-rule="evenodd" clip-rule="evenodd" d="M20.884 5.03948C16.0297 2.87652 10.3309 4.16409 6.87799 8.20396C3.42511 12.2438 3.04069 18.0736 5.93321 22.5319C8.82573 26.9902 14.3061 29.0149 19.4024 27.5081C24.4988 26.0013 27.997 21.3219 28 16.0074V15.0032L27.9927 14.876C27.9296 14.3334 27.4685 13.9123 26.9091 13.9123C26.3066 13.9123 25.8182 14.4007 25.8182 15.0032V16.0068L25.8136 16.3024C25.6849 20.527 22.8588 24.211 18.7838 25.4158C14.6141 26.6487 10.1301 24.9921 7.76354 21.3444C5.39694 17.6967 5.71146 12.9269 8.53654 9.62153C11.3616 6.31618 16.0243 5.26271 19.996 7.03241C20.5464 7.27762 21.1913 7.03027 21.4365 6.47994C21.6817 5.92961 21.4344 5.28469 20.884 5.03948ZM27.6801 6.5078C27.2539 6.08199 26.5631 6.08234 26.1373 6.50857L16 16.6559L13.4987 14.1554L13.3959 14.0647C12.968 13.7319 12.3492 13.7622 11.9559 14.1554C11.5299 14.5815 11.5299 15.2722 11.9559 15.6982L15.2286 18.9709L15.3315 19.0617C15.7596 19.3946 16.3786 19.3641 16.7718 18.9705L27.6809 8.05058L27.7716 7.94776C28.1041 7.51964 28.0735 6.90086 27.6801 6.5078Z" fill="#FF642F"/>
</svg>
